<?xml version="1.0" encoding="UTF-8"?><svg id="Camada_1" xmlns="http://www.w3.org/2000/svg" viewBox="0 0 127.98 127.98"><defs><style>.cls-1{fill:#312783;}.cls-2{fill:#009fe3;}.cls-3{fill:#1d1d1b;}</style></defs><circle class="cls-2" cx="63.99" cy="63.99" r="61.49"/><path class="cls-1" d="m63.99,5c32.53,0,58.99,26.46,58.99,58.99s-26.46,58.99-58.99,58.99S5,96.52,5,63.99,31.46,5,63.99,5m0-5C28.65,0,0,28.65,0,63.99s28.65,63.99,63.99,63.99,63.99-28.65,63.99-63.99S99.33,0,63.99,0h0Z"/><path class="cls-3" d="m63.99,80.37c-9.03,0-16.38-7.35-16.38-16.38s7.35-16.38,16.38-16.38,16.38,7.35,16.38,16.38-7.35,16.38-16.38,16.38Z"/><path class="cls-1" d="m63.99,50.11c7.66,0,13.88,6.23,13.88,13.88s-6.23,13.88-13.88,13.88-13.88-6.23-13.88-13.88,6.23-13.88,13.88-13.88m0-5c-10.43,0-18.88,8.45-18.88,18.88s8.45,18.88,18.88,18.88,18.88-8.45,18.88-18.88-8.45-18.88-18.88-18.88h0Z"/></svg>